<svg width="92" height="48" viewBox="0 0 92 48" fill="none" xmlns="http://www.w3.org/2000/svg">
<g clip-path="url(#clip0_5589_54353)">
<path d="M22.4553 47.9999C17.7659 47.9999 13.0156 46.8157 13.0156 44.5532C13.0156 43.9724 13.3466 43.1259 14.927 42.3919C15.9828 41.9012 17.4327 41.5274 19.1212 41.3113C19.4521 41.2685 19.7538 41.5027 19.7943 41.8336C19.8371 42.1646 19.6029 42.464 19.2742 42.5068C17.7299 42.7049 16.3678 43.0516 15.4358 43.4838C14.5398 43.9003 14.2201 44.31 14.2201 44.5532C14.2201 44.9202 14.891 45.5077 16.3903 45.9918C18.0023 46.5096 20.1545 46.7955 22.4531 46.7955C24.7517 46.7955 26.9062 46.5096 28.5158 45.9918C30.0152 45.51 30.6861 44.9224 30.6861 44.5532C30.6861 44.3146 30.3754 43.9116 29.5064 43.4996C28.5879 43.0651 27.2934 42.7274 25.7625 42.5225C25.4338 42.4775 25.2019 42.1758 25.2447 41.8449C25.2875 41.5139 25.5914 41.2843 25.9223 41.3271C27.577 41.5477 28.9931 41.9237 30.022 42.41C31.5663 43.1416 31.8905 43.9769 31.8905 44.5509C31.8905 46.8135 27.1425 47.9977 22.4508 47.9977" fill="#E9D0BF" style="fill:#E9D0BF;fill:color(display-p3 0.9137 0.8157 0.7490);fill-opacity:1;"/>
<path d="M44.6221 1.28095C44.6221 1.28095 46.3016 1.28095 47.5398 1.35525C48.778 1.42954 51.331 2.54393 50.883 5.86235C50.435 9.18077 46.7991 9.08171 46.7991 9.08171L48.6294 11.727L48.7758 13.6991L45.5947 9.08396H45.2322V15.9707H44.1719V1.55111C44.1719 1.27195 44.6221 1.2787 44.6221 1.2787M45.23 2.55069V8.06863C45.23 8.06863 47.3552 8.18795 48.0396 7.88402C48.724 7.58009 49.9757 6.91596 49.8294 4.81324C49.6831 2.71053 47.8437 2.46514 47.8437 2.46514C47.8437 2.46514 46.9635 2.24001 45.5159 2.29854C45.5159 2.29854 45.23 2.27603 45.23 2.55069Z" fill="#70ABA7" style="fill:#70ABA7;fill:color(display-p3 0.4392 0.6706 0.6549);fill-opacity:1;"/>
<path d="M91.2176 37.5585H60.4355V40.0979H91.2176V37.5585Z" fill="white" style="fill:white;fill-opacity:1;"/>
<path d="M13.5722 19.3409C13.0499 19.1766 12.5276 19.0843 12.012 19.0843C9.92731 19.0843 8.36716 19.5976 6.93983 21.0947C5.5035 22.5828 4.75157 24.1294 4.75157 26.2839C4.75157 28.4384 5.38869 30.0526 6.82502 31.516C8.26135 32.9793 9.61888 33.4926 11.7036 33.4926C12.782 33.4926 13.5294 33.3935 14.3128 33.0874C14.7338 32.9118 15.2854 32.5426 15.7357 32.2454C16.1859 31.9482 17.1697 31.1422 17.6673 30.7212V35.5683C15.9158 36.5589 13.6127 37.2545 11.6856 37.2545C8.7859 37.2545 6.00329 36.1176 3.95461 34.0937C1.91718 32.0518 0.780273 29.2759 0.780273 26.3942C0.780273 23.8098 1.73032 21.2365 3.43906 19.2148C5.54178 16.7362 8.52925 15.3088 11.8679 15.3088C13.338 15.3088 15.1053 15.7726 16.6272 16.4705" fill="#475A72" style="fill:#475A72;fill:color(display-p3 0.2784 0.3529 0.4471);fill-opacity:1;"/>
<path d="M31.7988 13.9985V37.1599L35.7611 37.1689V23.6454L46.5719 34.9266L46.5584 37.5314H50.5094L50.5252 24.0078L63.4769 37.5584H77.5633L81.9038 30.2237L86.1475 37.5584H90.5871L84.2181 26.5135L90.3034 16.3827L85.8008 16.3714L81.9668 22.7786L78.3535 16.3962L73.8014 16.3849L79.6525 26.5023L73.4704 36.7277V33.774H65.2914L65.2869 27.9341H73.2385V24.1316H65.2869L65.2802 20.1806H73.4704V16.3849H65.2802H61.2999L61.3382 29.7937L46.5719 14.4533V29.4447L31.7988 13.9985Z" fill="#475A72" style="fill:#475A72;fill:color(display-p3 0.2784 0.3529 0.4471);fill-opacity:1;"/>
<path d="M57.8106 9.44424L51.6578 14.6673C52.1689 15.2661 52.6326 15.6061 53.2675 15.8492C53.9024 16.0923 54.5215 16.1509 55.1608 16.027C55.8002 15.9032 56.3473 15.6263 56.8808 15.1715C57.4211 14.7123 57.7633 14.1832 57.9502 13.5191C58.1348 12.855 58.1371 12.1233 57.9772 11.4186L58.9768 11.2385C59.1794 12.1278 59.1749 13.0508 58.9115 13.85C58.6458 14.6492 58.1528 15.4102 57.4572 16.0045C56.7773 16.5831 55.9803 16.9546 55.1721 17.0649C54.3639 17.1775 53.5512 17.0649 52.7835 16.7385C52.018 16.4143 51.3044 15.874 50.7325 15.2031C50.1675 14.5412 49.7825 13.7645 49.5889 12.9563C49.3953 12.1481 49.4178 11.3376 49.6587 10.5564C49.8973 9.77743 50.3476 9.06377 51.0184 8.48969C51.7096 7.89985 52.4998 7.54639 53.3058 7.44283C54.1095 7.33927 54.9582 7.42932 55.7192 7.77152C56.4801 8.11372 57.2275 8.76209 57.8106 9.44649M51.0094 13.8861L56.3248 9.35869C55.8993 8.97146 55.4985 8.75309 54.929 8.58424C54.3571 8.41539 53.8146 8.39288 53.2315 8.49869C52.6484 8.60675 52.1666 8.84539 51.6961 9.24387C51.2278 9.6446 50.9171 10.0724 50.6988 10.6419C50.4804 11.2138 50.3971 11.7698 50.4624 12.3687C50.5277 12.9675 50.674 13.411 51.0094 13.8838" fill="#70ABA7" style="fill:#70ABA7;fill:color(display-p3 0.4392 0.6706 0.6549);fill-opacity:1;"/>
<path d="M61.1803 5.40085L61.178 14.692L60.0276 14.6897L60.0299 5.39635L58.8975 5.3986L58.9132 4.29772L60.0276 4.30222L60.0366 0.661865H61.1803L61.1915 4.30672L62.9746 4.30897L62.9768 5.40311L61.1803 5.40085Z" fill="#70ABA7" style="fill:#70ABA7;fill:color(display-p3 0.4392 0.6706 0.6549);fill-opacity:1;"/>
<path d="M64.7782 -1.39987e-05C65.0529 -1.39987e-05 65.2825 0.0945406 65.4694 0.285901C65.6562 0.477262 65.7508 0.704643 65.7508 0.970297C65.7508 1.23595 65.6562 1.47909 65.4671 1.6637C65.278 1.8483 65.0484 1.94061 64.7782 1.94061C64.5081 1.94061 64.2784 1.84605 64.0893 1.65694C63.9002 1.46783 63.8057 1.2382 63.8057 0.968046C63.8057 0.697889 63.9002 0.484016 64.0871 0.288153C64.2739 0.0945406 64.5058 -0.0045166 64.7782 -0.0045166M65.3501 4.31573L65.332 14.6875H64.1546V4.32023H65.3501V4.31573Z" fill="#70ABA7" style="fill:#70ABA7;fill:color(display-p3 0.4392 0.6706 0.6549);fill-opacity:1;"/>
<path d="M68.3707 4.41933L68.364 5.53147C68.8863 4.56567 69.5166 4.20996 70.55 4.20996C70.9057 4.20996 71.3649 4.32703 71.7296 4.48912L71.1128 5.52022C70.8719 5.38739 70.5972 5.29959 70.3654 5.29959C69.753 5.29959 69.3905 5.44818 69.0799 5.8309C68.7692 6.21362 68.5621 6.6211 68.4765 7.15241C68.391 7.68372 68.3459 8.30958 68.3459 9.00073V9.49151L68.3504 14.8023H67.1955L67.1865 4.41483H68.3707V4.41933Z" fill="#70ABA7" style="fill:#70ABA7;fill:color(display-p3 0.4392 0.6706 0.6549);fill-opacity:1;"/>
<path d="M79.7539 8.37929L72.1873 11.1844C72.4642 11.9228 72.7839 12.4001 73.2972 12.8459C73.8104 13.2916 74.371 13.5573 75.0149 13.6586C75.6588 13.7599 76.2666 13.6879 76.924 13.4425C77.5881 13.1948 78.0902 12.8166 78.4932 12.256C78.8939 11.6955 79.146 11.0088 79.2383 10.2906L80.2402 10.464C80.1254 11.369 79.8079 12.2358 79.2856 12.8954C78.7633 13.555 78.0406 14.1021 77.1829 14.424C76.3477 14.737 75.4697 14.8113 74.6727 14.6402C73.8757 14.4691 73.1486 14.0863 72.5385 13.519C71.9284 12.9517 71.4443 12.202 71.1359 11.3735C70.832 10.5585 70.7352 9.6963 70.8297 8.87232C70.9243 8.04835 71.2237 7.29191 71.7145 6.64128C72.2053 5.99066 72.8717 5.47286 73.7001 5.16443C74.5511 4.84699 75.4156 4.78621 76.2058 4.96181C76.996 5.13966 77.7637 5.51563 78.3626 6.09422C78.9614 6.67505 79.441 7.5418 79.7561 8.38379M71.8473 10.2321L78.3896 7.7917C78.1217 7.2829 77.82 6.94071 77.3427 6.58725C76.8632 6.2338 76.3612 6.02668 75.7758 5.92762C75.1905 5.82856 74.6569 5.88935 74.0784 6.10322C73.4998 6.31935 73.063 6.61427 72.6623 7.07803C72.2638 7.5418 71.9937 8.03484 71.8496 8.62018C71.7055 9.20551 71.692 9.67153 71.8451 10.2321" fill="#70ABA7" style="fill:#70ABA7;fill:color(display-p3 0.4392 0.6706 0.6549);fill-opacity:1;"/>
<path d="M30.7943 18.4831C28.2436 15.579 24.189 14.1741 20.3595 14.9396C14.648 16.081 10.3187 22.0402 11.7033 27.6594C12.1378 29.4245 13.0248 31.0296 13.9456 32.5133C16.0843 35.96 18.4887 38.9385 20.5531 41.7774C21.2353 42.7139 21.8792 43.6369 22.4645 44.5555C23.1241 43.6572 23.7995 42.7364 24.4907 41.7886C26.3097 39.2942 28.2323 36.6174 30.2157 33.7109C30.5624 33.2022 30.9159 32.6798 31.2513 32.144C32.055 30.8653 32.7777 29.4988 33.1627 27.9994C33.9979 24.744 33.0794 21.0811 30.7966 18.4831M22.4577 31.7793C18.7386 31.7793 15.7241 28.7648 15.7241 25.0457C15.7241 21.3265 18.7386 18.312 22.4577 18.312C26.1769 18.312 29.1914 21.3265 29.1914 25.0457C29.1914 28.7648 26.1769 31.7793 22.4577 31.7793Z" fill="#DB7454" style="fill:#DB7454;fill:color(display-p3 0.8588 0.4549 0.3294);fill-opacity:1;"/>
</g>
<defs>
<clipPath id="clip0_5589_54353">
<rect width="90.4393" height="48" fill="white" style="fill:white;fill-opacity:1;" transform="translate(0.780273)"/>
</clipPath>
</defs>
</svg>
